<mxfile host="app.diagrams.net" agent="Mozilla/5.0 (Windows NT 10.0; Win64; x64) AppleWebKit/537.36 (KHTML, like Gecko) Chrome/138.0.0.0 Safari/537.36" version="28.0.6">
  <diagram name="PÃ¡gina-1" id="7oRRa044wgvOKQDKRPOd">
    <mxGraphModel grid="1" page="1" gridSize="10" guides="1" tooltips="1" connect="1" arrows="1" fold="1" pageScale="1" pageWidth="827" pageHeight="1169" math="0" shadow="0">
      <root>
        <mxCell id="0" />
        <mxCell id="1" parent="0" />
        <mxCell id="COPNjGUIZROZtih3Xuy1-1" style="edgeStyle=orthogonalEdgeStyle;rounded=1;orthogonalLoop=1;jettySize=auto;html=1;entryX=0;entryY=0.5;entryDx=0;entryDy=0;curved=0;endArrow=none;endFill=0;exitX=1;exitY=0.5;exitDx=0;exitDy=0;" edge="1" parent="1" source="COPNjGUIZROZtih3Xuy1-14">
          <mxGeometry relative="1" as="geometry">
            <mxPoint x="907" y="345" as="targetPoint" />
          </mxGeometry>
        </mxCell>
        <mxCell id="COPNjGUIZROZtih3Xuy1-2" value="" style="verticalLabelPosition=bottom;verticalAlign=top;html=1;shape=mxgraph.basic.rect;fillColor2=none;strokeWidth=1;size=20;indent=5;" vertex="1" parent="1">
          <mxGeometry x="300" y="140" width="480" height="400" as="geometry" />
        </mxCell>
        <mxCell id="COPNjGUIZROZtih3Xuy1-3" value="&lt;span style=&quot;font-size: 12px; font-weight: 400; text-wrap-mode: wrap;&quot;&gt;&amp;lt;&amp;lt;structured&amp;gt;&amp;gt;&lt;/span&gt;&lt;div&gt;Encuesta&lt;/div&gt;" style="text;strokeColor=none;fillColor=none;html=1;fontSize=24;fontStyle=1;verticalAlign=middle;align=center;" vertex="1" parent="1">
          <mxGeometry x="455" y="160" width="170" height="40" as="geometry" />
        </mxCell>
        <mxCell id="COPNjGUIZROZtih3Xuy1-4" value="&lt;div&gt;&amp;lt;&amp;lt;part&amp;gt;&amp;gt;&lt;br&gt;D&lt;span style=&quot;background-color: transparent; color: light-dark(rgb(0, 0, 0), rgb(255, 255, 255));&quot;&gt;escripcion:&lt;br&gt;DescripcionEncuesta&lt;/span&gt;&lt;/div&gt;" style="html=1;whiteSpace=wrap;" vertex="1" parent="1">
          <mxGeometry x="340" y="430" width="120" height="60" as="geometry" />
        </mxCell>
        <mxCell id="COPNjGUIZROZtih3Xuy1-5" value="&amp;lt;&amp;lt;part&amp;gt;&amp;gt;&lt;div&gt;Titulo:TituloEncuesta&amp;nbsp;&lt;/div&gt;" style="html=1;whiteSpace=wrap;" vertex="1" parent="1">
          <mxGeometry x="610" y="250" width="140" height="50" as="geometry" />
        </mxCell>
        <mxCell id="COPNjGUIZROZtih3Xuy1-6" value="&amp;lt;&amp;lt;part&amp;gt;&amp;gt;&lt;br&gt;Preguntas:Preguntas&lt;span style=&quot;color: rgba(0, 0, 0, 0); font-family: monospace; font-size: 0px; text-align: start; text-wrap-mode: nowrap;&quot;&gt;%3CmxGraphModel%3E%3Croot%3E%3CmxCell%20id%3D%220%22%2F%3E%3CmxCell%20id%3D%221%22%20parent%3D%220%22%2F%3E%3CmxCell%20id%3D%222%22%20value%3D%22Contrato%22%20style%3D%22html%3D1%3BwhiteSpace%3Dwrap%3B%22%20vertex%3D%221%22%20parent%3D%221%22%3E%3CmxGeometry%20x%3D%22130%22%20y%3D%22130%22%20width%3D%22110%22%20height%3D%2250%22%20as%3D%22geometry%22%2F%3E%3C%2FmxCell%3E%3C%2Froot%3E%3C%2FmxGraphModel%3E&lt;/span&gt;" style="html=1;whiteSpace=wrap;" vertex="1" parent="1">
          <mxGeometry x="340" y="250" width="120" height="50" as="geometry" />
        </mxCell>
        <mxCell id="COPNjGUIZROZtih3Xuy1-7" value="" style="text;strokeColor=none;fillColor=none;align=left;verticalAlign=middle;spacingTop=-1;spacingLeft=4;spacingRight=4;rotatable=0;labelPosition=right;points=[];portConstraint=eastwest;" vertex="1" parent="1">
          <mxGeometry x="610" y="300" width="20" height="14" as="geometry" />
        </mxCell>
        <mxCell id="NCjywzJo6-M6zwzP43LK-1" style="edgeStyle=orthogonalEdgeStyle;rounded=0;orthogonalLoop=1;jettySize=auto;html=1;entryX=0.5;entryY=0;entryDx=0;entryDy=0;endArrow=none;endFill=0;" edge="1" parent="1" source="COPNjGUIZROZtih3Xuy1-8" target="COPNjGUIZROZtih3Xuy1-9">
          <mxGeometry relative="1" as="geometry">
            <Array as="points">
              <mxPoint x="395" y="340" />
              <mxPoint x="395" y="340" />
            </Array>
          </mxGeometry>
        </mxCell>
        <mxCell id="COPNjGUIZROZtih3Xuy1-8" value="" style="rounded=0;whiteSpace=wrap;html=1;" vertex="1" parent="1">
          <mxGeometry x="380" y="292" width="30" height="30" as="geometry" />
        </mxCell>
        <mxCell id="COPNjGUIZROZtih3Xuy1-9" value="" style="rounded=0;whiteSpace=wrap;html=1;" vertex="1" parent="1">
          <mxGeometry x="380" y="410" width="30" height="30" as="geometry" />
        </mxCell>
        <mxCell id="COPNjGUIZROZtih3Xuy1-11" value="" style="rounded=0;whiteSpace=wrap;html=1;" vertex="1" parent="1">
          <mxGeometry x="584" y="260" width="30" height="30" as="geometry" />
        </mxCell>
        <mxCell id="NCjywzJo6-M6zwzP43LK-4" style="edgeStyle=orthogonalEdgeStyle;rounded=0;orthogonalLoop=1;jettySize=auto;html=1;entryX=0;entryY=0.5;entryDx=0;entryDy=0;endArrow=none;endFill=0;" edge="1" parent="1" source="COPNjGUIZROZtih3Xuy1-13" target="COPNjGUIZROZtih3Xuy1-11">
          <mxGeometry relative="1" as="geometry" />
        </mxCell>
        <mxCell id="COPNjGUIZROZtih3Xuy1-13" value="" style="rounded=0;whiteSpace=wrap;html=1;" vertex="1" parent="1">
          <mxGeometry x="455" y="260" width="30" height="30" as="geometry" />
        </mxCell>
        <mxCell id="COPNjGUIZROZtih3Xuy1-14" value="" style="rounded=0;whiteSpace=wrap;html=1;" vertex="1" parent="1">
          <mxGeometry x="760" y="330" width="30" height="30" as="geometry" />
        </mxCell>
        <mxCell id="COPNjGUIZROZtih3Xuy1-15" value="&lt;font style=&quot;vertical-align: inherit;&quot;&gt;&lt;font style=&quot;vertical-align: inherit;&quot;&gt;&amp;lt;&amp;lt;port&amp;gt;&amp;gt;&lt;/font&gt;&lt;/font&gt;&lt;div&gt;interfazCliente : Cliente&amp;nbsp;&lt;/div&gt;" style="html=1;whiteSpace=wrap;" vertex="1" parent="1">
          <mxGeometry x="920" y="320" width="120" height="50" as="geometry" />
        </mxCell>
        <mxCell id="COPNjGUIZROZtih3Xuy1-16" value="" style="rounded=0;whiteSpace=wrap;html=1;" vertex="1" parent="1">
          <mxGeometry x="900" y="330" width="30" height="30" as="geometry" />
        </mxCell>
        <mxCell id="COPNjGUIZROZtih3Xuy1-17" value="&lt;font style=&quot;vertical-align: inherit;&quot;&gt;&lt;font style=&quot;vertical-align: inherit;&quot;&gt;&amp;lt;&amp;lt;port&amp;gt;&amp;gt;&lt;/font&gt;&lt;/font&gt;&lt;div&gt;interfazEvento&amp;nbsp; Evento&amp;nbsp;&amp;nbsp;&lt;/div&gt;" style="html=1;whiteSpace=wrap;" vertex="1" parent="1">
          <mxGeometry x="930" y="480" width="120" height="50" as="geometry" />
        </mxCell>
        <mxCell id="COPNjGUIZROZtih3Xuy1-18" value="&lt;font style=&quot;vertical-align: inherit;&quot;&gt;&lt;font style=&quot;vertical-align: inherit;&quot;&gt;&amp;lt;&amp;lt;port&amp;gt;&amp;gt;&lt;/font&gt;&lt;/font&gt;&lt;div&gt;interfazAdmin : Admin&amp;nbsp; &amp;nbsp;&lt;/div&gt;" style="html=1;whiteSpace=wrap;" vertex="1" parent="1">
          <mxGeometry x="920" y="200" width="120" height="50" as="geometry" />
        </mxCell>
        <mxCell id="COPNjGUIZROZtih3Xuy1-19" value="" style="rounded=0;whiteSpace=wrap;html=1;" vertex="1" parent="1">
          <mxGeometry x="760" y="210" width="30" height="30" as="geometry" />
        </mxCell>
        <mxCell id="COPNjGUIZROZtih3Xuy1-20" value="" style="rounded=0;whiteSpace=wrap;html=1;" vertex="1" parent="1">
          <mxGeometry x="900" y="210" width="30" height="30" as="geometry" />
        </mxCell>
        <mxCell id="COPNjGUIZROZtih3Xuy1-21" value="" style="rounded=0;whiteSpace=wrap;html=1;" vertex="1" parent="1">
          <mxGeometry x="770" y="490" width="30" height="30" as="geometry" />
        </mxCell>
        <mxCell id="COPNjGUIZROZtih3Xuy1-22" value="" style="rounded=0;whiteSpace=wrap;html=1;" vertex="1" parent="1">
          <mxGeometry x="910" y="490" width="30" height="30" as="geometry" />
        </mxCell>
        <mxCell id="COPNjGUIZROZtih3Xuy1-23" value="&lt;span style=&quot;font-weight: normal;&quot;&gt;&amp;lt;&amp;lt;note&amp;gt;&amp;gt;&lt;/span&gt;&lt;div&gt;&lt;span style=&quot;font-weight: 400;&quot;&gt;&amp;nbsp;crearEncuesta&lt;/span&gt;&lt;/div&gt;&lt;div&gt;&lt;span style=&quot;font-weight: 400;&quot;&gt;Estado Encuesta&lt;/span&gt;&lt;/div&gt;" style="html=1;whiteSpace=wrap;fontStyle=1" vertex="1" parent="1">
          <mxGeometry x="1180" y="200" width="100" height="50" as="geometry" />
        </mxCell>
        <mxCell id="COPNjGUIZROZtih3Xuy1-24" value="&amp;lt;&amp;lt;note&amp;gt;&amp;gt;&lt;div&gt;responderEncuesta&lt;/div&gt;" style="html=1;whiteSpace=wrap;" vertex="1" parent="1">
          <mxGeometry x="1165" y="309" width="130" height="80" as="geometry" />
        </mxCell>
        <mxCell id="COPNjGUIZROZtih3Xuy1-25" value="&amp;lt;&amp;lt;note&amp;gt;&amp;gt;&lt;div&gt;&amp;nbsp;asignarEncuesta&lt;/div&gt;" style="html=1;whiteSpace=wrap;" vertex="1" parent="1">
          <mxGeometry x="1180" y="475" width="130" height="80" as="geometry" />
        </mxCell>
        <mxCell id="COPNjGUIZROZtih3Xuy1-26" style="rounded=0;orthogonalLoop=1;jettySize=auto;html=1;exitX=1;exitY=0.5;exitDx=0;exitDy=0;endArrow=none;endFill=0;" edge="1" parent="1" source="COPNjGUIZROZtih3Xuy1-27" target="COPNjGUIZROZtih3Xuy1-32">
          <mxGeometry relative="1" as="geometry" />
        </mxCell>
        <mxCell id="COPNjGUIZROZtih3Xuy1-27" value="" style="rounded=0;whiteSpace=wrap;html=1;" vertex="1" parent="1">
          <mxGeometry x="1030" y="210" width="30" height="30" as="geometry" />
        </mxCell>
        <mxCell id="COPNjGUIZROZtih3Xuy1-28" style="rounded=0;orthogonalLoop=1;jettySize=auto;html=1;entryX=0;entryY=0.5;entryDx=0;entryDy=0;endArrow=none;endFill=0;" edge="1" parent="1" source="COPNjGUIZROZtih3Xuy1-29" target="COPNjGUIZROZtih3Xuy1-33">
          <mxGeometry relative="1" as="geometry" />
        </mxCell>
        <mxCell id="COPNjGUIZROZtih3Xuy1-29" value="" style="rounded=0;whiteSpace=wrap;html=1;" vertex="1" parent="1">
          <mxGeometry x="1030" y="334" width="30" height="30" as="geometry" />
        </mxCell>
        <mxCell id="COPNjGUIZROZtih3Xuy1-30" style="rounded=0;orthogonalLoop=1;jettySize=auto;html=1;entryX=0;entryY=0.5;entryDx=0;entryDy=0;endArrow=none;endFill=0;" edge="1" parent="1" source="COPNjGUIZROZtih3Xuy1-31" target="COPNjGUIZROZtih3Xuy1-34">
          <mxGeometry relative="1" as="geometry" />
        </mxCell>
        <mxCell id="COPNjGUIZROZtih3Xuy1-31" value="" style="rounded=0;whiteSpace=wrap;html=1;" vertex="1" parent="1">
          <mxGeometry x="1030" y="490" width="30" height="30" as="geometry" />
        </mxCell>
        <mxCell id="COPNjGUIZROZtih3Xuy1-32" value="" style="rounded=0;whiteSpace=wrap;html=1;" vertex="1" parent="1">
          <mxGeometry x="1160" y="210" width="30" height="30" as="geometry" />
        </mxCell>
        <mxCell id="COPNjGUIZROZtih3Xuy1-33" value="" style="rounded=0;whiteSpace=wrap;html=1;" vertex="1" parent="1">
          <mxGeometry x="1150" y="334" width="30" height="30" as="geometry" />
        </mxCell>
        <mxCell id="COPNjGUIZROZtih3Xuy1-34" value="" style="rounded=0;whiteSpace=wrap;html=1;" vertex="1" parent="1">
          <mxGeometry x="1165" y="490" width="30" height="30" as="geometry" />
        </mxCell>
        <mxCell id="COPNjGUIZROZtih3Xuy1-35" style="rounded=1;orthogonalLoop=1;jettySize=auto;html=1;entryX=0;entryY=0.5;entryDx=0;entryDy=0;endArrow=none;endFill=0;exitX=1;exitY=0.5;exitDx=0;exitDy=0;" edge="1" parent="1" source="COPNjGUIZROZtih3Xuy1-21" target="COPNjGUIZROZtih3Xuy1-22">
          <mxGeometry relative="1" as="geometry">
            <mxPoint x="940" y="514.5" as="targetPoint" />
            <mxPoint x="813" y="514.5" as="sourcePoint" />
          </mxGeometry>
        </mxCell>
        <mxCell id="COPNjGUIZROZtih3Xuy1-36" style="rounded=1;orthogonalLoop=1;jettySize=auto;html=1;entryX=0;entryY=0.5;entryDx=0;entryDy=0;endArrow=none;endFill=0;" edge="1" parent="1" source="COPNjGUIZROZtih3Xuy1-19" target="COPNjGUIZROZtih3Xuy1-20">
          <mxGeometry relative="1" as="geometry">
            <mxPoint x="927" y="234.38" as="targetPoint" />
            <mxPoint x="800" y="234.38" as="sourcePoint" />
          </mxGeometry>
        </mxCell>
        <mxCell id="COPNjGUIZROZtih3Xuy1-39" value="&lt;table&gt;&lt;tbody&gt;&lt;tr&gt;&lt;td data-start=&quot;2163&quot; data-end=&quot;2188&quot; data-col-size=&quot;sm&quot;&gt;&lt;/td&gt;&lt;/tr&gt;&lt;/tbody&gt;&lt;/table&gt;&lt;table&gt;&lt;tbody&gt;&lt;tr&gt;&lt;td data-start=&quot;2188&quot; data-end=&quot;2214&quot; data-col-size=&quot;sm&quot;&gt;1..*&lt;/td&gt;&lt;/tr&gt;&lt;/tbody&gt;&lt;/table&gt;" style="text;whiteSpace=wrap;html=1;" vertex="1" parent="1">
          <mxGeometry x="1060" y="320" width="60" height="50" as="geometry" />
        </mxCell>
        <mxCell id="COPNjGUIZROZtih3Xuy1-40" value="&lt;table&gt;&lt;tbody&gt;&lt;tr&gt;&lt;td data-start=&quot;2163&quot; data-end=&quot;2188&quot; data-col-size=&quot;sm&quot;&gt;&lt;/td&gt;&lt;/tr&gt;&lt;/tbody&gt;&lt;/table&gt;1" style="text;whiteSpace=wrap;html=1;" vertex="1" parent="1">
          <mxGeometry x="1135" y="320" width="30" height="40" as="geometry" />
        </mxCell>
        <mxCell id="COPNjGUIZROZtih3Xuy1-41" value="&lt;table&gt;&lt;tbody&gt;&lt;tr&gt;&lt;td data-start=&quot;2163&quot; data-end=&quot;2188&quot; data-col-size=&quot;sm&quot;&gt;&lt;/td&gt;&lt;/tr&gt;&lt;/tbody&gt;&lt;/table&gt;&lt;table&gt;&lt;tbody&gt;&lt;tr&gt;&lt;td data-start=&quot;2188&quot; data-end=&quot;2214&quot; data-col-size=&quot;sm&quot;&gt;1..*&lt;/td&gt;&lt;/tr&gt;&lt;/tbody&gt;&lt;/table&gt;" style="text;whiteSpace=wrap;html=1;" vertex="1" parent="1">
          <mxGeometry x="1060" y="470" width="60" height="50" as="geometry" />
        </mxCell>
        <mxCell id="COPNjGUIZROZtih3Xuy1-42" value="&lt;table&gt;&lt;tbody&gt;&lt;tr&gt;&lt;td data-start=&quot;2163&quot; data-end=&quot;2188&quot; data-col-size=&quot;sm&quot;&gt;&lt;/td&gt;&lt;/tr&gt;&lt;/tbody&gt;&lt;/table&gt;1" style="text;whiteSpace=wrap;html=1;" vertex="1" parent="1">
          <mxGeometry x="1145" y="475" width="60" height="50" as="geometry" />
        </mxCell>
        <mxCell id="COPNjGUIZROZtih3Xuy1-45" value="&lt;table&gt;&lt;tbody&gt;&lt;tr&gt;&lt;td data-start=&quot;2163&quot; data-end=&quot;2188&quot; data-col-size=&quot;sm&quot;&gt;&lt;/td&gt;&lt;/tr&gt;&lt;/tbody&gt;&lt;/table&gt;&lt;table&gt;&lt;tbody&gt;&lt;tr&gt;&lt;td data-start=&quot;2188&quot; data-end=&quot;2214&quot; data-col-size=&quot;sm&quot;&gt;1..*&lt;/td&gt;&lt;/tr&gt;&lt;/tbody&gt;&lt;/table&gt;" style="text;whiteSpace=wrap;html=1;" vertex="1" parent="1">
          <mxGeometry x="1060" y="190" width="60" height="50" as="geometry" />
        </mxCell>
        <mxCell id="COPNjGUIZROZtih3Xuy1-46" value="1" style="text;whiteSpace=wrap;html=1;" vertex="1" parent="1">
          <mxGeometry x="1150" y="200" width="60" height="50" as="geometry" />
        </mxCell>
        <mxCell id="COPNjGUIZROZtih3Xuy1-47" value="1" style="text;whiteSpace=wrap;html=1;" vertex="1" parent="1">
          <mxGeometry x="790" y="190" width="60" height="50" as="geometry" />
        </mxCell>
        <mxCell id="COPNjGUIZROZtih3Xuy1-48" value="&lt;table&gt;&lt;tbody&gt;&lt;tr&gt;&lt;td data-start=&quot;2163&quot; data-end=&quot;2188&quot; data-col-size=&quot;sm&quot;&gt;&lt;/td&gt;&lt;/tr&gt;&lt;/tbody&gt;&lt;/table&gt;&lt;table&gt;&lt;tbody&gt;&lt;tr&gt;&lt;td data-start=&quot;2188&quot; data-end=&quot;2214&quot; data-col-size=&quot;sm&quot;&gt;1..*&lt;/td&gt;&lt;/tr&gt;&lt;/tbody&gt;&lt;/table&gt;" style="text;whiteSpace=wrap;html=1;" vertex="1" parent="1">
          <mxGeometry x="870" y="190" width="60" height="50" as="geometry" />
        </mxCell>
        <mxCell id="COPNjGUIZROZtih3Xuy1-49" value="1" style="text;whiteSpace=wrap;html=1;" vertex="1" parent="1">
          <mxGeometry x="790" y="310" width="60" height="50" as="geometry" />
        </mxCell>
        <mxCell id="COPNjGUIZROZtih3Xuy1-50" value="&lt;table&gt;&lt;tbody&gt;&lt;tr&gt;&lt;td data-start=&quot;2163&quot; data-end=&quot;2188&quot; data-col-size=&quot;sm&quot;&gt;&lt;/td&gt;&lt;/tr&gt;&lt;/tbody&gt;&lt;/table&gt;&lt;table&gt;&lt;tbody&gt;&lt;tr&gt;&lt;td data-start=&quot;2188&quot; data-end=&quot;2214&quot; data-col-size=&quot;sm&quot;&gt;1..*&lt;/td&gt;&lt;/tr&gt;&lt;/tbody&gt;&lt;/table&gt;" style="text;whiteSpace=wrap;html=1;" vertex="1" parent="1">
          <mxGeometry x="870" y="314" width="60" height="50" as="geometry" />
        </mxCell>
        <mxCell id="COPNjGUIZROZtih3Xuy1-51" value="1" style="text;whiteSpace=wrap;html=1;" vertex="1" parent="1">
          <mxGeometry x="800" y="475" width="60" height="50" as="geometry" />
        </mxCell>
        <mxCell id="COPNjGUIZROZtih3Xuy1-52" value="&lt;table&gt;&lt;tbody&gt;&lt;tr&gt;&lt;td data-start=&quot;2163&quot; data-end=&quot;2188&quot; data-col-size=&quot;sm&quot;&gt;&lt;/td&gt;&lt;/tr&gt;&lt;/tbody&gt;&lt;/table&gt;&lt;table&gt;&lt;tbody&gt;&lt;tr&gt;&lt;td data-start=&quot;2188&quot; data-end=&quot;2214&quot; data-col-size=&quot;sm&quot;&gt;1..*&lt;/td&gt;&lt;/tr&gt;&lt;/tbody&gt;&lt;/table&gt;" style="text;whiteSpace=wrap;html=1;" vertex="1" parent="1">
          <mxGeometry x="880" y="470" width="60" height="50" as="geometry" />
        </mxCell>
        <mxCell id="NCjywzJo6-M6zwzP43LK-2" value="" style="rounded=0;whiteSpace=wrap;html=1;" vertex="1" parent="1">
          <mxGeometry x="455" y="445" width="30" height="30" as="geometry" />
        </mxCell>
        <mxCell id="NCjywzJo6-M6zwzP43LK-5" style="rounded=0;orthogonalLoop=1;jettySize=auto;html=1;entryX=1;entryY=0.5;entryDx=0;entryDy=0;startArrow=none;startFill=0;endArrow=none;endFill=0;" edge="1" parent="1" source="NCjywzJo6-M6zwzP43LK-3" target="NCjywzJo6-M6zwzP43LK-2">
          <mxGeometry relative="1" as="geometry" />
        </mxCell>
        <mxCell id="NCjywzJo6-M6zwzP43LK-3" value="" style="rounded=0;whiteSpace=wrap;html=1;" vertex="1" parent="1">
          <mxGeometry x="665" y="292" width="30" height="30" as="geometry" />
        </mxCell>
        <mxCell id="ah_7BWiDS2Xq_UzfUb3k-1" value="1" style="text;whiteSpace=wrap;html=1;" vertex="1" parent="1">
          <mxGeometry x="565" y="250" width="60" height="50" as="geometry" />
        </mxCell>
        <mxCell id="ah_7BWiDS2Xq_UzfUb3k-2" value="1" style="text;whiteSpace=wrap;html=1;" vertex="1" parent="1">
          <mxGeometry x="660" y="315" width="60" height="50" as="geometry" />
        </mxCell>
        <mxCell id="ah_7BWiDS2Xq_UzfUb3k-3" value="1" style="text;whiteSpace=wrap;html=1;" vertex="1" parent="1">
          <mxGeometry x="485" y="450" width="60" height="50" as="geometry" />
        </mxCell>
        <mxCell id="ah_7BWiDS2Xq_UzfUb3k-7" value="&lt;table&gt;&lt;tbody&gt;&lt;tr&gt;&lt;td data-start=&quot;2163&quot; data-end=&quot;2188&quot; data-col-size=&quot;sm&quot;&gt;&lt;/td&gt;&lt;/tr&gt;&lt;/tbody&gt;&lt;/table&gt;&lt;table&gt;&lt;tbody&gt;&lt;tr&gt;&lt;td data-start=&quot;2188&quot; data-end=&quot;2214&quot; data-col-size=&quot;sm&quot;&gt;1..*&lt;/td&gt;&lt;/tr&gt;&lt;/tbody&gt;&lt;/table&gt;" style="text;whiteSpace=wrap;html=1;" vertex="1" parent="1">
          <mxGeometry x="485" y="242" width="60" height="50" as="geometry" />
        </mxCell>
        <mxCell id="ah_7BWiDS2Xq_UzfUb3k-8" value="&lt;table&gt;&lt;tbody&gt;&lt;tr&gt;&lt;td data-start=&quot;2163&quot; data-end=&quot;2188&quot; data-col-size=&quot;sm&quot;&gt;&lt;/td&gt;&lt;/tr&gt;&lt;/tbody&gt;&lt;/table&gt;&lt;table&gt;&lt;tbody&gt;&lt;tr&gt;&lt;td data-start=&quot;2188&quot; data-end=&quot;2214&quot; data-col-size=&quot;sm&quot;&gt;1..*&lt;/td&gt;&lt;/tr&gt;&lt;/tbody&gt;&lt;/table&gt;" style="text;whiteSpace=wrap;html=1;" vertex="1" parent="1">
          <mxGeometry x="395" y="310" width="60" height="50" as="geometry" />
        </mxCell>
        <mxCell id="ah_7BWiDS2Xq_UzfUb3k-9" value="1" style="text;whiteSpace=wrap;html=1;" vertex="1" parent="1">
          <mxGeometry x="395" y="390" width="60" height="50" as="geometry" />
        </mxCell>
      </root>
    </mxGraphModel>
  </diagram>
</mxfile>
